# Made in Blockbench 5.0.0
mtllib lens_colored.mtl

o lens_colored_side_2
v 0.3125 0.4375 0.3125
v 0.3125 0.4375 -0.3125
v 0.3125 0.375 0.3125
v 0.3125 0.375 -0.3125
v -0.3125 0.4375 -0.3125
v -0.3125 0.4375 0.3125
v -0.3125 0.375 -0.3125
v -0.3125 0.375 0.3125
vt 0.34375 0.9375
vt 0.65625 0.9375
vt 0.65625 0.90625
vt 0.34375 0.90625
vt 0.34375 0.9375
vt 0.65625 0.9375
vt 0.65625 0.90625
vt 0.34375 0.90625
vt 0.34375 0.9375
vt 0.65625 0.9375
vt 0.65625 0.90625
vt 0.34375 0.90625
vt 0.34375 0.9375
vt 0.65625 0.9375
vt 0.65625 0.90625
vt 0.34375 0.90625
vt 0.3125 1
vt 0 1
vt 0 0.6875
vt 0.3125 0.6875
vn 0 0 -1
vn 1 0 0
vn 0 0 1
vn -1 0 0
vn 0 -1 0
usemtl m_4678dbe9-7528-a135-ebd0-b1d1d41f11db
f 4/4/1 7/3/1 5/2/1 2/1/1
f 3/8/2 4/7/2 2/6/2 1/5/2
f 8/12/3 3/11/3 1/10/3 6/9/3
f 7/16/4 8/15/4 6/14/4 5/13/4
f 7/20/5 4/19/5 3/18/5 8/17/5
o lens_colored_side_2
v 0.3125 0.625 0.3125
v 0.3125 0.625 -0.3125
v 0.3125 0.5625 0.3125
v 0.3125 0.5625 -0.3125
v -0.3125 0.625 -0.3125
v -0.3125 0.625 0.3125
v -0.3125 0.5625 -0.3125
v -0.3125 0.5625 0.3125
vt 0.34375 0.90625
vt 0.65625 0.90625
vt 0.65625 0.875
vt 0.34375 0.875
vt 0.34375 0.90625
vt 0.65625 0.90625
vt 0.65625 0.875
vt 0.34375 0.875
vt 0.34375 0.90625
vt 0.65625 0.90625
vt 0.65625 0.875
vt 0.34375 0.875
vt 0.34375 0.90625
vt 0.65625 0.90625
vt 0.65625 0.875
vt 0.34375 0.875
vt 0.3125 0.6875
vt 0 0.6875
vt 0 1
vt 0.3125 1
vn 0 0 -1
vn 1 0 0
vn 0 0 1
vn -1 0 0
vn 0 1 0
usemtl m_4678dbe9-7528-a135-ebd0-b1d1d41f11db
f 12/24/6 15/23/6 13/22/6 10/21/6
f 11/28/7 12/27/7 10/26/7 9/25/7
f 16/32/8 11/31/8 9/30/8 14/29/8
f 15/36/9 16/35/9 14/34/9 13/33/9
f 14/40/10 9/39/10 10/38/10 13/37/10
o glass_colored
v -0.3125 1 -0.25
v -0.3125 1 -0.3125
v -0.3125 0 -0.25
v -0.3125 0 -0.3125
v -0.375 1 -0.3125
v -0.375 1 -0.25
v -0.375 0 -0.3125
v -0.375 0 -0.25
vt 0 0.6875
vt 0.03125 0.6875
vt 0.03125 0.1875
vt 0 0.1875
vt 0.3125 1
vt 0.34375 1
vt 0.34375 0.5
vt 0.3125 0.5
vt 0.03125 0.6875
vt 0.0625 0.6875
vt 0.0625 0.1875
vt 0.03125 0.1875
vt 0.0625 0.6875
vt 0.09375 0.6875
vt 0.09375 0.1875
vt 0.0625 0.1875
vt 0.25 0.65625
vt 0.21875 0.65625
vt 0.21875 0.6875
vt 0.25 0.6875
vt 0.28125 0.6875
vt 0.25 0.6875
vt 0.25 0.65625
vt 0.28125 0.65625
vn 0 0 -1
vn 1 0 0
vn 0 0 1
vn -1 0 0
vn 0 1 0
vn 0 -1 0
usemtl m_4678dbe9-7528-a135-ebd0-b1d1d41f11db
f 20/44/11 23/43/11 21/42/11 18/41/11
f 19/48/12 20/47/12 18/46/12 17/45/12
f 24/52/13 19/51/13 17/50/13 22/49/13
f 23/56/14 24/55/14 22/54/14 21/53/14
f 22/60/15 17/59/15 18/58/15 21/57/15
f 23/64/16 20/63/16 19/62/16 24/61/16
o glass_colored
v -0.25 1 -0.3125
v -0.25 1 -0.375
v -0.25 0 -0.3125
v -0.25 0 -0.375
v -0.3125 1 -0.375
v -0.3125 1 -0.3125
v -0.3125 0 -0.375
v -0.3125 0 -0.3125
vt 0.3125 1
vt 0.34375 1
vt 0.34375 0.5
vt 0.3125 0.5
vt 0 0.6875
vt 0.03125 0.6875
vt 0.03125 0.1875
vt 0 0.1875
vt 0.0625 0.6875
vt 0.09375 0.6875
vt 0.09375 0.1875
vt 0.0625 0.1875
vt 0.03125 0.6875
vt 0.0625 0.6875
vt 0.0625 0.1875
vt 0.03125 0.1875
vt 0.3125 0.65625
vt 0.28125 0.65625
vt 0.28125 0.6875
vt 0.3125 0.6875
vt 0.375 0.8125
vt 0.34375 0.8125
vt 0.34375 0.78125
vt 0.375 0.78125
vn 0 0 -1
vn 1 0 0
vn 0 0 1
vn -1 0 0
vn 0 1 0
vn 0 -1 0
usemtl m_4678dbe9-7528-a135-ebd0-b1d1d41f11db
f 28/68/17 31/67/17 29/66/17 26/65/17
f 27/72/18 28/71/18 26/70/18 25/69/18
f 32/76/19 27/75/19 25/74/19 30/73/19
f 31/80/20 32/79/20 30/78/20 29/77/20
f 30/84/21 25/83/21 26/82/21 29/81/21
f 31/88/22 28/87/22 27/86/22 32/85/22
o glass_colored
v 0.3125 1 -0.3125
v 0.3125 1 -0.375
v 0.3125 0 -0.3125
v 0.3125 0 -0.375
v 0.25 1 -0.375
v 0.25 1 -0.3125
v 0.25 0 -0.375
v 0.25 0 -0.3125
vt 0.0625 0.6875
vt 0.09375 0.6875
vt 0.09375 0.1875
vt 0.0625 0.1875
vt 0 0.6875
vt 0.03125 0.6875
vt 0.03125 0.1875
vt 0 0.1875
vt 0.3125 1
vt 0.34375 1
vt 0.34375 0.5
vt 0.3125 0.5
vt 0.03125 0.6875
vt 0.0625 0.6875
vt 0.0625 0.1875
vt 0.03125 0.1875
vt 0.375 0.78125
vt 0.34375 0.78125
vt 0.34375 0.8125
vt 0.375 0.8125
vt 0.28125 0.65625
vt 0.3125 0.65625
vt 0.3125 0.6875
vt 0.28125 0.6875
vn 0 0 -1
vn 1 0 0
vn 0 0 1
vn -1 0 0
vn 0 1 0
vn 0 -1 0
usemtl m_4678dbe9-7528-a135-ebd0-b1d1d41f11db
f 36/92/23 39/91/23 37/90/23 34/89/23
f 35/96/24 36/95/24 34/94/24 33/93/24
f 40/100/25 35/99/25 33/98/25 38/97/25
f 39/104/26 40/103/26 38/102/26 37/101/26
f 38/108/27 33/107/27 34/106/27 37/105/27
f 39/112/28 36/111/28 35/110/28 40/109/28
o glass_colored
v 0.375 1 -0.25
v 0.375 1 -0.3125
v 0.375 0 -0.25
v 0.375 0 -0.3125
v 0.3125 1 -0.3125
v 0.3125 1 -0.25
v 0.3125 0 -0.3125
v 0.3125 0 -0.25
vt 0.03125 0.6875
vt 0.0625 0.6875
vt 0.0625 0.1875
vt 0.03125 0.1875
vt 0.3125 1
vt 0.34375 1
vt 0.34375 0.5
vt 0.3125 0.5
vt 0 0.6875
vt 0.03125 0.6875
vt 0.03125 0.1875
vt 0 0.1875
vt 0.0625 0.6875
vt 0.09375 0.6875
vt 0.09375 0.1875
vt 0.0625 0.1875
vt 0.28125 0.65625
vt 0.25 0.65625
vt 0.25 0.6875
vt 0.28125 0.6875
vt 0.21875 0.65625
vt 0.25 0.65625
vt 0.25 0.6875
vt 0.21875 0.6875
vn 0 0 -1
vn 1 0 0
vn 0 0 1
vn -1 0 0
vn 0 1 0
vn 0 -1 0
usemtl m_4678dbe9-7528-a135-ebd0-b1d1d41f11db
f 44/116/29 47/115/29 45/114/29 42/113/29
f 43/120/30 44/119/30 42/118/30 41/117/30
f 48/124/31 43/123/31 41/122/31 46/121/31
f 47/128/32 48/127/32 46/126/32 45/125/32
f 46/132/33 41/131/33 42/130/33 45/129/33
f 47/136/34 44/135/34 43/134/34 48/133/34
o glass_colored
v -0.3125 1 0.3125
v -0.3125 1 0.25
v -0.3125 0 0.3125
v -0.3125 0 0.25
v -0.375 1 0.25
v -0.375 1 0.3125
v -0.375 0 0.25
v -0.375 0 0.3125
vt 0 0.6875
vt 0.03125 0.6875
vt 0.03125 0.1875
vt 0 0.1875
vt 0.0625 0.6875
vt 0.09375 0.6875
vt 0.09375 0.1875
vt 0.0625 0.1875
vt 0.03125 0.6875
vt 0.0625 0.6875
vt 0.0625 0.1875
vt 0.03125 0.1875
vt 0.3125 1
vt 0.34375 1
vt 0.34375 0.5
vt 0.3125 0.5
vt 0.25 0.625
vt 0.21875 0.625
vt 0.21875 0.65625
vt 0.25 0.65625
vt 0.375 0.78125
vt 0.34375 0.78125
vt 0.34375 0.75
vt 0.375 0.75
vn 0 0 -1
vn 1 0 0
vn 0 0 1
vn -1 0 0
vn 0 1 0
vn 0 -1 0
usemtl m_4678dbe9-7528-a135-ebd0-b1d1d41f11db
f 52/140/35 55/139/35 53/138/35 50/137/35
f 51/144/36 52/143/36 50/142/36 49/141/36
f 56/148/37 51/147/37 49/146/37 54/145/37
f 55/152/38 56/151/38 54/150/38 53/149/38
f 54/156/39 49/155/39 50/154/39 53/153/39
f 55/160/40 52/159/40 51/158/40 56/157/40
o glass_colored
v -0.25 1 0.375
v -0.25 1 0.3125
v -0.25 0 0.375
v -0.25 0 0.3125
v -0.3125 1 0.3125
v -0.3125 1 0.375
v -0.3125 0 0.3125
v -0.3125 0 0.375
vt 0.3125 1
vt 0.34375 1
vt 0.34375 0.5
vt 0.3125 0.5
vt 0.03125 0.6875
vt 0.0625 0.6875
vt 0.0625 0.1875
vt 0.03125 0.1875
vt 0.0625 0.6875
vt 0.09375 0.6875
vt 0.09375 0.1875
vt 0.0625 0.1875
vt 0 0.6875
vt 0.03125 0.6875
vt 0.03125 0.1875
vt 0 0.1875
vt 0.28125 0.625
vt 0.25 0.625
vt 0.25 0.65625
vt 0.28125 0.65625
vt 0.375 0.75
vt 0.34375 0.75
vt 0.34375 0.71875
vt 0.375 0.71875
vn 0 0 -1
vn 1 0 0
vn 0 0 1
vn -1 0 0
vn 0 1 0
vn 0 -1 0
usemtl m_4678dbe9-7528-a135-ebd0-b1d1d41f11db
f 60/164/41 63/163/41 61/162/41 58/161/41
f 59/168/42 60/167/42 58/166/42 57/165/42
f 64/172/43 59/171/43 57/170/43 62/169/43
f 63/176/44 64/175/44 62/174/44 61/173/44
f 62/180/45 57/179/45 58/178/45 61/177/45
f 63/184/46 60/183/46 59/182/46 64/181/46
o glass_colored
v 0.375 1 0.3125
v 0.375 1 0.25
v 0.375 0 0.3125
v 0.375 0 0.25
v 0.3125 1 0.25
v 0.3125 1 0.3125
v 0.3125 0 0.25
v 0.3125 0 0.3125
vt 0.03125 0.6875
vt 0.0625 0.6875
vt 0.0625 0.1875
vt 0.03125 0.1875
vt 0.0625 0.6875
vt 0.09375 0.6875
vt 0.09375 0.1875
vt 0.0625 0.1875
vt 0 0.6875
vt 0.03125 0.6875
vt 0.03125 0.1875
vt 0 0.1875
vt 0.3125 1
vt 0.34375 1
vt 0.34375 0.5
vt 0.3125 0.5
vt 0.375 0.75
vt 0.34375 0.75
vt 0.34375 0.78125
vt 0.375 0.78125
vt 0.21875 0.625
vt 0.25 0.625
vt 0.25 0.65625
vt 0.21875 0.65625
vn 0 0 -1
vn 1 0 0
vn 0 0 1
vn -1 0 0
vn 0 1 0
vn 0 -1 0
usemtl m_4678dbe9-7528-a135-ebd0-b1d1d41f11db
f 68/188/47 71/187/47 69/186/47 66/185/47
f 67/192/48 68/191/48 66/190/48 65/189/48
f 72/196/49 67/195/49 65/194/49 70/193/49
f 71/200/50 72/199/50 70/198/50 69/197/50
f 70/204/51 65/203/51 66/202/51 69/201/51
f 71/208/52 68/207/52 67/206/52 72/205/52
o glass_colored
v 0.3125 1 0.375
v 0.3125 1 0.3125
v 0.3125 0 0.375
v 0.3125 0 0.3125
v 0.25 1 0.3125
v 0.25 1 0.375
v 0.25 0 0.3125
v 0.25 0 0.375
vt 0.0625 0.6875
vt 0.09375 0.6875
vt 0.09375 0.1875
vt 0.0625 0.1875
vt 0.03125 0.6875
vt 0.0625 0.6875
vt 0.0625 0.1875
vt 0.03125 0.1875
vt 0.3125 1
vt 0.34375 1
vt 0.34375 0.5
vt 0.3125 0.5
vt 0 0.6875
vt 0.03125 0.6875
vt 0.03125 0.1875
vt 0 0.1875
vt 0.375 0.71875
vt 0.34375 0.71875
vt 0.34375 0.75
vt 0.375 0.75
vt 0.25 0.625
vt 0.28125 0.625
vt 0.28125 0.65625
vt 0.25 0.65625
vn 0 0 -1
vn 1 0 0
vn 0 0 1
vn -1 0 0
vn 0 1 0
vn 0 -1 0
usemtl m_4678dbe9-7528-a135-ebd0-b1d1d41f11db
f 76/212/53 79/211/53 77/210/53 74/209/53
f 75/216/54 76/215/54 74/214/54 73/213/54
f 80/220/55 75/219/55 73/218/55 78/217/55
f 79/224/56 80/223/56 78/222/56 77/221/56
f 78/228/57 73/227/57 74/226/57 77/225/57
f 79/232/58 76/231/58 75/230/58 80/229/58
o lens_colored_side
v 0.25 0.5625 -0.3125
v 0.25 0.5625 -0.375
v 0.25 0.4375 -0.3125
v 0.25 0.4375 -0.375
v -0.25 0.5625 -0.375
v -0.25 0.5625 -0.3125
v -0.25 0.4375 -0.375
v -0.25 0.4375 -0.3125
vt 0.34375 1
vt 0.59375 1
vt 0.59375 0.9375
vt 0.34375 0.9375
vt 0.15625 0.6875
vt 0.1875 0.6875
vt 0.1875 0.625
vt 0.15625 0.625
vt 0.1875 0.6875
vt 0.21875 0.6875
vt 0.21875 0.625
vt 0.1875 0.625
vt 0.59375 0.84375
vt 0.34375 0.84375
vt 0.34375 0.875
vt 0.59375 0.875
vt 0.34375 0.84375
vt 0.59375 0.84375
vt 0.59375 0.875
vt 0.34375 0.875
vn 0 0 -1
vn 1 0 0
vn -1 0 0
vn 0 1 0
vn 0 -1 0
usemtl m_4678dbe9-7528-a135-ebd0-b1d1d41f11db
f 84/236/59 87/235/59 85/234/59 82/233/59
f 83/240/60 84/239/60 82/238/60 81/237/60
f 87/244/61 88/243/61 86/242/61 85/241/61
f 86/248/62 81/247/62 82/246/62 85/245/62
f 87/252/63 84/251/63 83/250/63 88/249/63
o lens_colored_side
v 0.25 0.5625 0.375
v 0.25 0.5625 0.3125
v 0.25 0.4375 0.375
v 0.25 0.4375 0.3125
v -0.25 0.5625 0.3125
v -0.25 0.5625 0.375
v -0.25 0.4375 0.3125
v -0.25 0.4375 0.375
vt 0.1875 0.6875
vt 0.21875 0.6875
vt 0.21875 0.625
vt 0.1875 0.625
vt 0.34375 1
vt 0.59375 1
vt 0.59375 0.9375
vt 0.34375 0.9375
vt 0.15625 0.6875
vt 0.1875 0.6875
vt 0.1875 0.625
vt 0.15625 0.625
vt 0.59375 0.8125
vt 0.34375 0.8125
vt 0.34375 0.84375
vt 0.59375 0.84375
vt 0.34375 0.8125
vt 0.59375 0.8125
vt 0.59375 0.84375
vt 0.34375 0.84375
vn 1 0 0
vn 0 0 1
vn -1 0 0
vn 0 1 0
vn 0 -1 0
usemtl m_4678dbe9-7528-a135-ebd0-b1d1d41f11db
f 91/256/64 92/255/64 90/254/64 89/253/64
f 96/260/65 91/259/65 89/258/65 94/257/65
f 95/264/66 96/263/66 94/262/66 93/261/66
f 94/268/67 89/267/67 90/266/67 93/265/67
f 95/272/68 92/271/68 91/270/68 96/269/68
o lens_colored_side
v -0.3125 0.5625 0.25
v -0.3125 0.5625 -0.25
v -0.3125 0.4375 0.25
v -0.3125 0.4375 -0.25
v -0.375 0.5625 -0.25
v -0.375 0.5625 0.25
v -0.375 0.4375 -0.25
v -0.375 0.4375 0.25
vt 0.15625 0.6875
vt 0.1875 0.6875
vt 0.1875 0.625
vt 0.15625 0.625
vt 0.1875 0.6875
vt 0.21875 0.6875
vt 0.21875 0.625
vt 0.1875 0.625
vt 0.34375 1
vt 0.59375 1
vt 0.59375 0.9375
vt 0.34375 0.9375
vt 0.125 0.4375
vt 0.09375 0.4375
vt 0.09375 0.6875
vt 0.125 0.6875
vt 0.15625 0.6875
vt 0.125 0.6875
vt 0.125 0.4375
vt 0.15625 0.4375
vn 0 0 -1
vn 0 0 1
vn -1 0 0
vn 0 1 0
vn 0 -1 0
usemtl m_4678dbe9-7528-a135-ebd0-b1d1d41f11db
f 100/276/69 103/275/69 101/274/69 98/273/69
f 104/280/70 99/279/70 97/278/70 102/277/70
f 103/284/71 104/283/71 102/282/71 101/281/71
f 102/288/72 97/287/72 98/286/72 101/285/72
f 103/292/73 100/291/73 99/290/73 104/289/73
o lens_colored_side
v 0.375 0.5625 0.25
v 0.375 0.5625 -0.25
v 0.375 0.4375 0.25
v 0.375 0.4375 -0.25
v 0.3125 0.5625 -0.25
v 0.3125 0.5625 0.25
v 0.3125 0.4375 -0.25
v 0.3125 0.4375 0.25
vt 0.1875 0.6875
vt 0.21875 0.6875
vt 0.21875 0.625
vt 0.1875 0.625
vt 0.34375 1
vt 0.59375 1
vt 0.59375 0.9375
vt 0.34375 0.9375
vt 0.15625 0.6875
vt 0.1875 0.6875
vt 0.1875 0.625
vt 0.15625 0.625
vt 0.15625 0.4375
vt 0.125 0.4375
vt 0.125 0.6875
vt 0.15625 0.6875
vt 0.09375 0.4375
vt 0.125 0.4375
vt 0.125 0.6875
vt 0.09375 0.6875
vn 0 0 -1
vn 1 0 0
vn 0 0 1
vn 0 1 0
vn 0 -1 0
usemtl m_4678dbe9-7528-a135-ebd0-b1d1d41f11db
f 108/296/74 111/295/74 109/294/74 106/293/74
f 107/300/75 108/299/75 106/298/75 105/297/75
f 112/304/76 107/303/76 105/302/76 110/301/76
f 110/308/77 105/307/77 106/306/77 109/305/77
f 111/312/78 108/311/78 107/310/78 112/309/78